<svg width="18" height="18" viewBox="0 0 18 18" fill="none" xmlns="http://www.w3.org/2000/svg">
<path d="M10.7992 1.45429C10.8175 1.38583 10.849 1.32165 10.8921 1.2654C10.9352 1.20916 10.9889 1.16195 11.0503 1.12649C11.1116 1.09103 11.1793 1.068 11.2495 1.05873C11.3198 1.04946 11.3911 1.05412 11.4596 1.07245C12.7616 1.41208 13.9495 2.09268 14.901 3.04414C15.8524 3.99561 16.533 5.18353 16.8727 6.48553C16.891 6.55397 16.8957 6.62534 16.8864 6.69557C16.8771 6.76581 16.8541 6.83353 16.8186 6.89486C16.7832 6.95619 16.736 7.00992 16.6797 7.053C16.6235 7.09607 16.5593 7.12764 16.4908 7.14589C16.4454 7.15798 16.3986 7.16402 16.3516 7.16386C16.2328 7.16393 16.1173 7.12477 16.0231 7.05248C15.9289 6.98018 15.8612 6.87879 15.8305 6.76405C15.5389 5.64566 14.9544 4.62526 14.1371 3.80801C13.3199 2.99076 12.2994 2.40622 11.1811 2.11464C11.1126 2.09639 11.0484 2.06482 10.9922 2.02175C10.9359 1.97868 10.8887 1.92494 10.8533 1.86361C10.8178 1.80228 10.7948 1.73456 10.7855 1.66433C10.7762 1.59409 10.7809 1.52272 10.7992 1.45429ZM10.4623 4.98964C11.7695 5.33823 12.6069 6.17557 12.9555 7.4828C12.9862 7.59754 13.0539 7.69893 13.1481 7.77123C13.2423 7.84352 13.3578 7.88268 13.4766 7.88261C13.5236 7.88277 13.5704 7.87673 13.6158 7.86464C13.6843 7.84639 13.7485 7.81482 13.8047 7.77175C13.861 7.72867 13.9082 7.67494 13.9436 7.61361C13.9791 7.55228 14.0021 7.48456 14.0114 7.41432C14.0207 7.34409 14.016 7.27272 13.9977 7.20428C13.5484 5.52331 12.4218 4.39667 10.7408 3.94745C10.6724 3.92916 10.601 3.92453 10.5308 3.93382C10.4606 3.94312 10.3929 3.96615 10.3316 4.0016C10.2077 4.07321 10.1174 4.19108 10.0805 4.32928C10.0435 4.46749 10.063 4.6147 10.1346 4.73854C10.2062 4.86238 10.3241 4.9527 10.4623 4.98964ZM17.5995 13.7045C17.4456 14.8789 16.8692 15.9572 15.9782 16.7376C15.0871 17.518 13.9423 17.9473 12.7578 17.9451C5.72306 17.9451 8.95939e-06 12.2221 8.95939e-06 5.18729C-0.00226028 4.00319 0.426605 2.85876 1.2065 1.96776C1.98639 1.07676 3.06396 0.500145 4.23794 0.345614C4.50819 0.312772 4.7818 0.368496 5.01767 0.504417C5.25355 0.640338 5.43896 0.849119 5.54606 1.0994L7.44177 5.33104C7.52547 5.52261 7.5601 5.73203 7.54253 5.94035C7.52496 6.14867 7.45575 6.34932 7.34114 6.52417C7.32958 6.54197 7.31698 6.55907 7.30341 6.57538L5.4104 8.82686C5.39891 8.8502 5.39293 8.87587 5.39293 8.90188C5.39293 8.9279 5.39891 8.95356 5.4104 8.9769C6.0986 10.3857 7.57563 11.8519 9.00415 12.5392C9.028 12.5501 9.05406 12.5553 9.08025 12.5543C9.10645 12.5534 9.13207 12.5464 9.15509 12.5338L11.3733 10.6471C11.3892 10.6333 11.406 10.6207 11.4236 10.6094C11.5977 10.4933 11.798 10.4225 12.0063 10.4034C12.2146 10.3842 12.4245 10.4174 12.6168 10.4998L16.861 12.4017C17.1079 12.5112 17.3131 12.6972 17.4461 12.9323C17.5791 13.1674 17.6329 13.4391 17.5995 13.7072V13.7045ZM16.5313 13.5715C16.5343 13.5339 16.5254 13.4964 16.5059 13.4641C16.4864 13.4319 16.4572 13.4066 16.4225 13.3918L12.1774 11.4898C12.1542 11.4809 12.1294 11.4771 12.1046 11.4786C12.0798 11.4802 12.0556 11.487 12.0337 11.4988L9.81634 13.3855C9.80016 13.399 9.78309 13.4116 9.76602 13.4233C9.58516 13.5439 9.37612 13.6156 9.1593 13.6313C8.94247 13.647 8.72527 13.6063 8.52888 13.5131C6.87934 12.7162 5.2352 11.0873 4.43829 9.45307C4.34456 9.25782 4.30284 9.04167 4.31716 8.82556C4.33148 8.60945 4.40137 8.40069 4.52005 8.21952C4.53162 8.2015 4.54453 8.18438 4.55868 8.16831L6.45079 5.91682C6.4616 5.89329 6.4672 5.8677 6.4672 5.8418C6.4672 5.81591 6.4616 5.79032 6.45079 5.76678L4.55868 1.53155C4.54619 1.49756 4.52373 1.46814 4.49423 1.44713C4.46473 1.42613 4.42957 1.41453 4.39337 1.41386H4.3727C3.45894 1.53541 2.62066 1.98539 2.01439 2.67978C1.40812 3.37417 1.07532 4.26549 1.07813 5.18729C1.07813 11.6273 6.31782 16.867 12.7578 16.867C13.6798 16.8698 14.5712 16.5368 15.2656 15.9304C15.96 15.3239 16.4099 14.4854 16.5313 13.5715Z" fill="white"/>
</svg>
