<svg width="20" height="20" viewBox="0 0 20 20" fill="none" xmlns="http://www.w3.org/2000/svg">
<path d="M20 16.6049C20 16.8038 19.921 16.9946 19.7803 17.1353C19.6397 17.2759 19.4489 17.3549 19.25 17.3549H14.15C13.983 17.9778 13.6151 18.5282 13.1034 18.9207C12.5918 19.3132 11.9649 19.526 11.32 19.526C10.6751 19.526 10.0482 19.3132 9.53658 18.9207C9.02491 18.5282 8.65704 17.9778 8.49 17.3549H0.75C0.551088 17.3549 0.360322 17.2759 0.21967 17.1353C0.0790175 16.9946 0 16.8038 0 16.6049C0 16.406 0.0790175 16.2153 0.21967 16.0746C0.360322 15.9339 0.551088 15.8549 0.75 15.8549H8.49C8.65704 15.2321 9.02491 14.6817 9.53658 14.2892C10.0482 13.8966 10.6751 13.6839 11.32 13.6839C11.9649 13.6839 12.5918 13.8966 13.1034 14.2892C13.6151 14.6817 13.983 15.2321 14.15 15.8549H19.25C19.4489 15.8549 19.6397 15.9339 19.7803 16.0746C19.921 16.2153 20 16.406 20 16.6049ZM20 3.39493C20 3.59384 19.921 3.78461 19.7803 3.92526C19.6397 4.06591 19.4489 4.14493 19.25 4.14493H16.8C16.633 4.76781 16.2651 5.31817 15.7534 5.7107C15.2418 6.10323 14.6149 6.31598 13.97 6.31598C13.3251 6.31598 12.6982 6.10323 12.1866 5.7107C11.6749 5.31817 11.307 4.76781 11.14 4.14493H0.75C0.651509 4.14493 0.553982 4.12553 0.462987 4.08784C0.371993 4.05015 0.289314 3.9949 0.21967 3.92526C0.150026 3.85562 0.0947813 3.77294 0.0570903 3.68194C0.0193993 3.59095 0 3.49342 0 3.39493C0 3.29644 0.0193993 3.19891 0.0570903 3.10792C0.0947813 3.01692 0.150026 2.93424 0.21967 2.8646C0.289314 2.79496 0.371993 2.73971 0.462987 2.70202C0.553982 2.66433 0.651509 2.64493 0.75 2.64493H11.14C11.307 2.02205 11.6749 1.47169 12.1866 1.07916C12.6982 0.686634 13.3251 0.473877 13.97 0.473877C14.6149 0.473877 15.2418 0.686634 15.7534 1.07916C16.2651 1.47169 16.633 2.02205 16.8 2.64493H19.25C19.3489 2.64359 19.447 2.66207 19.5386 2.69928C19.6302 2.7365 19.7134 2.79169 19.7833 2.8616C19.8532 2.93152 19.9084 3.01473 19.9457 3.10633C19.9829 3.19794 20.0013 3.29607 20 3.39493ZM20 9.99493C20.0013 10.0938 19.9829 10.1919 19.9457 10.2835C19.9084 10.3751 19.8532 10.4583 19.7833 10.5283C19.7134 10.5982 19.6302 10.6534 19.5386 10.6906C19.447 10.7278 19.3489 10.7463 19.25 10.7449H7.55C7.38296 11.3678 7.01509 11.9182 6.50342 12.3107C5.99176 12.7032 5.36489 12.916 4.72 12.916C4.07511 12.916 3.44824 12.7032 2.93658 12.3107C2.42491 11.9182 2.05704 11.3678 1.89 10.7449H0.75C0.551088 10.7449 0.360322 10.6659 0.21967 10.5253C0.0790175 10.3846 0 10.1938 0 9.99493C0 9.79602 0.0790175 9.60525 0.21967 9.4646C0.360322 9.32395 0.551088 9.24493 0.75 9.24493H1.89C2.05704 8.62205 2.42491 8.07169 2.93658 7.67916C3.44824 7.28663 4.07511 7.07388 4.72 7.07388C5.36489 7.07388 5.99176 7.28663 6.50342 7.67916C7.01509 8.07169 7.38296 8.62205 7.55 9.24493H19.25C19.4489 9.24493 19.6397 9.32395 19.7803 9.4646C19.921 9.60525 20 9.79602 20 9.99493Z" fill="black"/>
</svg>
